<svg width="276" height="53" viewBox="0 0 276 53" fill="none" xmlns="http://www.w3.org/2000/svg">
<path d="M38.5 13.75H5.5C2.4624 13.75 0 15.5968 0 17.875V37.125C0 39.4032 2.4624 41.25 5.5 41.25H7.33333V42.625C7.33333 43.3847 8.15375 44 9.16667 44H12.8333C13.8463 44 14.6667 43.3847 14.6667 42.625V41.25H29.3333V42.625C29.3333 43.3847 30.1538 44 31.1667 44H34.8333C35.8463 44 36.6667 43.3847 36.6667 42.625V41.25H38.5C41.5376 41.25 44 39.4032 44 37.125V17.875C44 15.5968 41.5376 13.75 38.5 13.75ZM36.6667 32.3125C36.6667 32.6923 36.2565 33 35.75 33H8.25C7.74354 33 7.33333 32.6923 7.33333 32.3125V30.9375C7.33333 30.5577 7.74354 30.25 8.25 30.25H35.75C36.2565 30.25 36.6667 30.5577 36.6667 30.9375V32.3125ZM36.6667 24.0625C36.6667 24.4423 36.2565 24.75 35.75 24.75H8.25C7.74354 24.75 7.33333 24.4423 7.33333 24.0625V22.6875C7.33333 22.3077 7.74354 22 8.25 22H35.75C36.2565 22 36.6667 22.3077 36.6667 22.6875V24.0625ZM16.5 4.125H27.5V11H33V4.125C33 1.8468 30.5376 0 27.5 0H16.5C13.4624 0 11 1.8468 11 4.125V11H16.5V4.125Z" fill="white"/>
<path d="M65.988 13.064H75.032C77.2347 13.064 78.9427 13.596 80.156 14.66C81.388 15.724 82.004 17.1707 82.004 19C82.004 20.8107 81.388 22.2573 80.156 23.34C78.924 24.404 77.216 24.936 75.032 24.936H70.356V33H65.988V13.064ZM74.472 21.604C76.7493 21.604 77.888 20.7453 77.888 19.028C77.888 17.292 76.7493 16.424 74.472 16.424H70.356V21.604H74.472ZM96.0777 28.576H86.7537L84.8497 33H80.4537L89.6097 13.064H93.1377L102.294 33H97.9817L96.0777 28.576ZM94.6497 25.244L91.4297 17.768L88.2097 25.244H94.6497ZM112.801 33.252C110.785 33.252 109.021 32.832 107.509 31.992C106.016 31.1333 104.868 29.9387 104.065 28.408C103.262 26.8587 102.861 25.0573 102.861 23.004C102.861 20.9693 103.262 19.1867 104.065 17.656C104.868 16.1067 106.016 14.912 107.509 14.072C109.021 13.232 110.785 12.812 112.801 12.812C114.126 12.812 115.386 13.0173 116.581 13.428C117.794 13.82 118.784 14.38 119.549 15.108L118.177 18.244C117.281 17.572 116.404 17.0867 115.545 16.788C114.705 16.4707 113.818 16.312 112.885 16.312C111.093 16.312 109.721 16.8813 108.769 18.02C107.817 19.1587 107.341 20.82 107.341 23.004C107.341 25.2067 107.817 26.8867 108.769 28.044C109.721 29.1827 111.093 29.752 112.885 29.752C113.818 29.752 114.705 29.6027 115.545 29.304C116.404 28.9867 117.281 28.492 118.177 27.82L119.549 30.956C118.784 31.684 117.794 32.2533 116.581 32.664C115.386 33.056 114.126 33.252 112.801 33.252ZM135.665 33L126.985 23.788V33H122.617V13.064H126.985V21.828L135.357 13.064H140.565L131.297 22.584L140.929 33H135.665ZM170.519 13.064L163.435 33H159.935L155.287 19.812L150.611 33H147.111L140.027 13.064H144.479L149.071 26.84L153.887 13.064H156.939L161.643 27.036L166.347 13.064H170.519ZM173.039 13.064H177.407V33H173.039V13.064ZM185.998 16.62H179.754V13.064H196.666V16.62H190.422V33H185.998V16.62ZM216.796 13.064V33H212.512V24.628H203.272V33H198.988V13.064H203.272V21.128H212.512V13.064H216.796ZM240.604 13.064V33H236.74V22.108L232.148 33H229.32L224.7 22.248V33H220.864V13.064H224.336L230.776 27.764L237.16 13.064H240.604ZM244.625 13.064H258.373V16.452H248.881V21.156H257.785V24.572H248.881V29.612H258.373V33H244.625V13.064Z" fill="white"/>
</svg>
